<?xml version="1.0" encoding="UTF-8"?>
<svg xmlns="http://www.w3.org/2000/svg" xmlns:xlink="http://www.w3.org/1999/xlink" viewBox="0 0 106.83 94">
  <defs>
    <style>
      .cls-1 {
        fill: url(#radial-gradient-6);
      }

      .cls-1, .cls-2, .cls-3, .cls-4, .cls-5, .cls-6, .cls-7, .cls-8, .cls-9, .cls-10, .cls-11, .cls-12, .cls-13, .cls-14, .cls-15, .cls-16, .cls-17 {
        stroke-width: 0px;
      }

      .cls-1, .cls-4, .cls-5, .cls-6, .cls-7, .cls-8, .cls-11, .cls-15, .cls-17 {
        mix-blend-mode: overlay;
      }

      .cls-1, .cls-17 {
        opacity: .4;
      }

      .cls-2 {
        fill: url(#linear-gradient);
      }

      .cls-18 {
        isolation: isolate;
      }

      .cls-3 {
        fill: url(#radial-gradient-13);
      }

      .cls-4 {
        fill: url(#radial-gradient-14);
      }

      .cls-5 {
        fill: url(#radial-gradient-10);
      }

      .cls-6 {
        fill: url(#radial-gradient-2);
      }

      .cls-7 {
        fill: url(#Degradado_sin_nombre_34-2);
        opacity: .2;
      }

      .cls-8 {
        fill: url(#radial-gradient-12);
      }

      .cls-9 {
        fill: url(#radial-gradient-7);
      }

      .cls-10 {
        fill: url(#radial-gradient);
      }

      .cls-11 {
        fill: url(#radial-gradient-8);
      }

      .cls-12 {
        fill: url(#radial-gradient-9);
      }

      .cls-13 {
        fill: url(#radial-gradient-3);
      }

      .cls-14 {
        fill: url(#radial-gradient-11);
      }

      .cls-15 {
        fill: url(#radial-gradient-5);
      }

      .cls-16 {
        fill: url(#radial-gradient-4);
      }

      .cls-17 {
        fill: url(#Degradado_sin_nombre_34);
      }
    </style>
    <linearGradient id="linear-gradient" x1="103.97" y1="-.96" x2="46.97" y2="62.73" gradientUnits="userSpaceOnUse">
      <stop offset="0" stop-color="#ffba24"/>
      <stop offset="1" stop-color="#f50"/>
    </linearGradient>
    <radialGradient id="radial-gradient" cx="-1936.29" cy="17.02" fx="-1936.29" fy="17.02" r="45.6" gradientTransform="translate(-1856.4) rotate(-180) scale(1 -1)" gradientUnits="userSpaceOnUse">
      <stop offset="0" stop-color="#fff4c3"/>
      <stop offset=".16" stop-color="#ffe036"/>
      <stop offset="1" stop-color="#fa761c"/>
    </radialGradient>
    <radialGradient id="radial-gradient-2" cx="-1024.01" cy="-304.45" fx="-1024.01" fy="-304.45" r="6.84" gradientTransform="translate(-1268.33 803.4) rotate(126.03) scale(1.43 2.08) skewX(-4.38)" gradientUnits="userSpaceOnUse">
      <stop offset="0" stop-color="#fff"/>
      <stop offset=".1" stop-color="#fff" stop-opacity=".85"/>
      <stop offset=".29" stop-color="#fff" stop-opacity=".59"/>
      <stop offset=".47" stop-color="#fff" stop-opacity=".38"/>
      <stop offset=".63" stop-color="#fff" stop-opacity=".22"/>
      <stop offset=".78" stop-color="#fff" stop-opacity=".1"/>
      <stop offset=".91" stop-color="#fff" stop-opacity=".03"/>
      <stop offset="1" stop-color="#fff" stop-opacity="0"/>
    </radialGradient>
    <radialGradient id="Degradado_sin_nombre_34" data-name="Degradado sin nombre 34" cx="-4178.01" cy="6956.11" fx="-4178.01" fy="6956.11" r="6.6" gradientTransform="translate(-6378.73 512.06) rotate(-136.79) scale(1.61 .68) skewX(11.83)" gradientUnits="userSpaceOnUse">
      <stop offset="0" stop-color="#fff"/>
      <stop offset=".1" stop-color="#fff" stop-opacity=".85"/>
      <stop offset=".29" stop-color="#fff" stop-opacity=".59"/>
      <stop offset=".47" stop-color="#fff" stop-opacity=".38"/>
      <stop offset=".63" stop-color="#fff" stop-opacity=".22"/>
      <stop offset=".78" stop-color="#fff" stop-opacity=".1"/>
      <stop offset=".91" stop-color="#fff" stop-opacity=".03"/>
      <stop offset="1" stop-color="#fff" stop-opacity="0"/>
    </radialGradient>
    <radialGradient id="radial-gradient-3" cx="57.67" cy="27.99" fx="57.67" fy="27.99" r="70.26" gradientTransform="translate(115.34 48.43) rotate(-180) scale(1 .73)" gradientUnits="userSpaceOnUse">
      <stop offset="0" stop-color="#fff"/>
      <stop offset=".2" stop-color="#d5f3ff"/>
      <stop offset="1" stop-color="#85bcf1"/>
    </radialGradient>
    <radialGradient id="radial-gradient-4" cx="66.72" cy="31.98" fx="66.72" fy="31.98" r="61.7" gradientUnits="userSpaceOnUse">
      <stop offset="0" stop-color="#ffe036"/>
      <stop offset=".08" stop-color="#fecb30" stop-opacity=".81"/>
      <stop offset=".18" stop-color="#fcb52b" stop-opacity=".6"/>
      <stop offset=".28" stop-color="#fca126" stop-opacity=".41"/>
      <stop offset=".38" stop-color="#fb9122" stop-opacity=".26"/>
      <stop offset=".48" stop-color="#fa851f" stop-opacity=".15"/>
      <stop offset=".58" stop-color="#fa7c1d" stop-opacity=".07"/>
      <stop offset=".68" stop-color="#fa771c" stop-opacity=".02"/>
      <stop offset=".77" stop-color="#fa761c" stop-opacity="0"/>
    </radialGradient>
    <radialGradient id="radial-gradient-5" cx="-1004.82" cy="-295.47" fx="-1004.82" fy="-295.47" r="8.48" xlink:href="#radial-gradient-2"/>
    <radialGradient id="radial-gradient-6" cx="-1005.07" cy="-311.13" fx="-1005.07" fy="-311.13" r="6.66" xlink:href="#radial-gradient-2"/>
    <radialGradient id="Degradado_sin_nombre_34-2" data-name="Degradado sin nombre 34" cx="10.93" cy="65.74" fx="10.93" fy="65.74" r="4.87" gradientTransform="translate(-81.93 -101.94) rotate(-25.71) scale(1 2.91)" xlink:href="#Degradado_sin_nombre_34"/>
    <radialGradient id="radial-gradient-7" cx="-1119.98" cy="-234.21" fx="-1119.98" fy="-234.21" r="9.89" gradientTransform="translate(870.87 853.82) rotate(30)" gradientUnits="userSpaceOnUse">
      <stop offset="0" stop-color="#d0f2ff"/>
      <stop offset=".2" stop-color="#d5f3ff"/>
      <stop offset="1" stop-color="#85bcf1"/>
    </radialGradient>
    <radialGradient id="radial-gradient-8" cx="-631.65" cy="235.93" fx="-631.65" fy="235.93" r="1.55" gradientTransform="translate(-628.96 915.46) rotate(156.04) scale(1.43 2.08) skewX(-4.38)" xlink:href="#radial-gradient-2"/>
    <radialGradient id="radial-gradient-9" cx="-1105.09" cy="-242.81" fx="-1105.09" fy="-242.81" r="9.89" xlink:href="#radial-gradient-7"/>
    <radialGradient id="radial-gradient-10" cx="-642.92" cy="232.57" fx="-642.92" fy="232.57" r="1.55" gradientTransform="translate(-628.96 915.46) rotate(156.04) scale(1.43 2.08) skewX(-4.38)" xlink:href="#radial-gradient-2"/>
    <radialGradient id="radial-gradient-11" cx="-1090.2" cy="-251.4" fx="-1090.2" fy="-251.4" r="9.89" xlink:href="#radial-gradient-7"/>
    <radialGradient id="radial-gradient-12" cx="-654.19" cy="229.22" fx="-654.19" fy="229.22" r="1.55" gradientTransform="translate(-628.96 915.46) rotate(156.04) scale(1.43 2.08) skewX(-4.38)" xlink:href="#radial-gradient-2"/>
    <radialGradient id="radial-gradient-13" cx="-1075.31" cy="-260" fx="-1075.31" fy="-260" r="9.89" xlink:href="#radial-gradient-7"/>
    <radialGradient id="radial-gradient-14" cx="-665.46" cy="225.86" fx="-665.46" fy="225.86" r="1.55" gradientTransform="translate(-628.96 915.46) rotate(156.04) scale(1.43 2.08) skewX(-4.38)" xlink:href="#radial-gradient-2"/>
  </defs>
  <g class="cls-18">
    <g id="Layer_2" data-name="Layer 2">
      <g id="OBJECTS">
        <g>
          <g>
            <polygon class="cls-2" points="99.77 52.29 92.67 52.76 91.33 59.75 84.5 57.76 80.85 63.88 75.1 59.67 69.58 64.16 65.63 58.24 58.9 60.58 57.21 53.67 50.09 53.56 50.86 46.48 44.21 43.95 47.36 37.56 41.97 32.91 47.11 27.98 43.64 21.77 50.16 18.9 49.02 11.87 56.13 11.4 57.47 4.41 64.3 6.4 67.95 .29 73.69 4.5 79.22 0 83.17 5.92 89.9 3.58 91.59 10.5 98.71 10.6 97.94 17.68 104.59 20.21 101.44 26.6 106.83 31.25 101.69 36.18 105.16 42.39 98.64 45.26 99.77 52.29"/>
            <path class="cls-10" d="m50.38,32.08c0,13.27,10.75,24.02,24.02,24.02s24.02-10.75,24.02-24.02-10.75-24.02-24.02-24.02-24.02,10.76-24.02,24.02Z"/>
            <g>
              <path class="cls-6" d="m78.06,29.61c-6.12-4.96-8.51-12.52-5.34-16.88,3.17-4.36,10.71-3.87,16.83,1.09,6.12,4.96,8.5,12.52,5.33,16.88-3.17,4.37-10.71,3.87-16.82-1.09Z"/>
              <path class="cls-17" d="m53.17,37.39c.81-2.66,4.93-1.56,9.21,2.46,4.27,4.02,7.08,9.42,6.27,12.08-.81,2.66-4.93,1.56-9.21-2.46-4.27-4.02-7.08-9.43-6.27-12.08Z"/>
            </g>
          </g>
          <g>
            <path class="cls-13" d="m73,39.36c-.96-14.05-12.65-25.15-26.94-25.15s-25.98,11.1-26.94,25.15C8.47,39.88,0,48.68,0,59.45s9.01,20.12,20.12,20.12h51.86c11.11,0,20.12-9.01,20.12-20.12s-8.47-19.57-19.11-20.1Z"/>
            <path class="cls-16" d="m73,39.36c-.96-14.05-12.65-25.15-26.94-25.15s-25.98,11.1-26.94,25.15C8.47,39.88,0,48.68,0,59.45s9.01,20.12,20.12,20.12h51.86c11.11,0,20.12-9.01,20.12-20.12s-8.47-19.57-19.11-20.1Z"/>
            <path class="cls-15" d="m46.06,41.86c-7.58-6.15-10.53-15.5-6.61-20.9,3.93-5.4,13.26-4.79,20.83,1.35,7.57,6.14,10.53,15.51,6.6,20.9-3.93,5.4-13.26,4.79-20.83-1.35Z"/>
            <path class="cls-1" d="m73.14,60.02c-5.95-4.83-8.28-12.18-5.19-16.43,3.09-4.24,10.42-3.77,16.37,1.06,5.95,4.83,8.27,12.19,5.19,16.43-3.09,4.25-10.42,3.77-16.37-1.06Z"/>
            <path class="cls-7" d="m14.39,60.7c-4.39-6.85-9.5-10.15-11.41-7.37-1.9,2.78.11,10.59,4.5,17.44,4.4,6.85,9.5,10.15,11.41,7.38,1.91-2.79-.11-10.59-4.5-17.45Z"/>
          </g>
          <g>
            <g>
              <path class="cls-9" d="m23.58,91.94c-1.14,1.97-3.65,2.64-5.62,1.5-1.97-1.13-2.64-3.65-1.5-5.62,1.14-1.97,8.16-5.91,8.16-5.91,0,0,.1,8.05-1.04,10.02Z"/>
              <path class="cls-11" d="m16.58,91.26c-.64-1.67-.25-3.42.87-3.91,1.12-.5,2.54.45,3.17,2.12.64,1.66.25,3.42-.87,3.91-1.12.5-2.54-.45-3.17-2.12Z"/>
            </g>
            <g>
              <path class="cls-12" d="m40.78,91.94c-1.14,1.97-3.65,2.64-5.62,1.5-1.97-1.13-2.64-3.65-1.5-5.62,1.14-1.97,8.16-5.91,8.16-5.91,0,0,.1,8.05-1.04,10.02Z"/>
              <path class="cls-5" d="m33.77,91.26c-.64-1.67-.25-3.42.87-3.91,1.12-.5,2.54.45,3.17,2.12.64,1.66.25,3.42-.86,3.91-1.12.5-2.54-.45-3.17-2.12Z"/>
            </g>
            <g>
              <path class="cls-14" d="m57.97,91.94c-1.14,1.97-3.65,2.64-5.62,1.5-1.97-1.13-2.64-3.65-1.5-5.62,1.14-1.97,8.16-5.91,8.16-5.91,0,0,.1,8.05-1.04,10.02Z"/>
              <path class="cls-8" d="m50.97,91.26c-.64-1.67-.25-3.42.87-3.91,1.12-.5,2.54.45,3.17,2.12.64,1.66.25,3.42-.86,3.91-1.12.5-2.54-.45-3.17-2.12Z"/>
            </g>
            <g>
              <path class="cls-3" d="m75.16,91.94c-1.14,1.97-3.65,2.64-5.62,1.5-1.97-1.13-2.64-3.65-1.5-5.62,1.14-1.97,8.16-5.91,8.16-5.91,0,0,.1,8.05-1.04,10.02Z"/>
              <path class="cls-4" d="m68.16,91.26c-.64-1.67-.25-3.42.87-3.91,1.12-.5,2.54.45,3.17,2.12.64,1.66.25,3.42-.87,3.91-1.12.5-2.54-.45-3.17-2.12Z"/>
            </g>
          </g>
        </g>
      </g>
    </g>
  </g>
</svg>